<?xml version="1.0" encoding="UTF-8"?>
<svg xmlns="http://www.w3.org/2000/svg" viewBox="0 0 128 128">
  <!-- Background -->
  <rect width="128" height="128" rx="16" fill="#3b82f6"/>

  <!-- Git branch icon -->
  <path d="M64 24c-6.6 0-12 5.4-12 12 0 5.6 3.8 10.3 9 11.6v8.4c0 8.8-7.2 16-16 16h-8c-5.2 0-9.6 3.4-11.2 8-1.6-4.6-6-8-11.2-8-6.6 0-12 5.4-12 12s5.4 12 12 12c6.6 0 12-5.4 12-12 0-1.6-.3-3.1-.9-4.5 1.1-1.8 3.1-3 5.3-3h8c13.2 0 24-10.8 24-24v-8.4c5.2-1.3 9-6 9-11.6 0-6.6-5.4-12-12-12zm0 16c-2.2 0-4-1.8-4-4s1.8-4 4-4 4 1.8 4 4-1.8 4-4 4zm-48 40c-2.2 0-4-1.8-4-4s1.8-4 4-4 4 1.8 4 4-1.8 4-4 4z" fill="white"/>

  <!-- Checkmark -->
  <path d="M96 64l-8-8-24 24-12-12-8 8 20 20z" fill="#22c55e"/>

  <!-- Warning icon -->
  <circle cx="104" cy="104" r="16" fill="#f59e0b"/>
  <path d="M104 96v12m0 4v4" stroke="white" stroke-width="3" stroke-linecap="round"/>
</svg>
